<svg xmlns="http://www.w3.org/2000/svg" width="920" height="488" viewBox="0 0 920 488">
<rect width="100%" height="100%" fill="#f8fafc"/>
<text x="32" y="38" font-family="Arial" font-size="24" font-weight="700" fill="#111827">Applications by Week</text>
<text x="32" y="90" font-family="Arial" font-size="14" fill="#374151">2026-05-04</text>
<rect x="190" y="68" width="600" height="24" rx="4" fill="#2563eb"/>
<text x="800" y="86" font-family="Arial" font-size="14" fill="#111827">3</text>
<text x="32" y="128" font-family="Arial" font-size="14" fill="#374151">2026-05-11</text>
<rect x="190" y="106" width="400" height="24" rx="4" fill="#2563eb"/>
<text x="600" y="124" font-family="Arial" font-size="14" fill="#111827">2</text>
<text x="32" y="166" font-family="Arial" font-size="14" fill="#374151">2026-05-18</text>
<rect x="190" y="144" width="600" height="24" rx="4" fill="#2563eb"/>
<text x="800" y="162" font-family="Arial" font-size="14" fill="#111827">3</text>
<text x="32" y="204" font-family="Arial" font-size="14" fill="#374151">2026-05-25</text>
<rect x="190" y="182" width="400" height="24" rx="4" fill="#2563eb"/>
<text x="600" y="200" font-family="Arial" font-size="14" fill="#111827">2</text>
<text x="32" y="242" font-family="Arial" font-size="14" fill="#374151">2026-06-01</text>
<rect x="190" y="220" width="600" height="24" rx="4" fill="#2563eb"/>
<text x="800" y="238" font-family="Arial" font-size="14" fill="#111827">3</text>
<text x="32" y="280" font-family="Arial" font-size="14" fill="#374151">2026-06-08</text>
<rect x="190" y="258" width="600" height="24" rx="4" fill="#2563eb"/>
<text x="800" y="276" font-family="Arial" font-size="14" fill="#111827">3</text>
<text x="32" y="318" font-family="Arial" font-size="14" fill="#374151">2026-06-15</text>
<rect x="190" y="296" width="400" height="24" rx="4" fill="#2563eb"/>
<text x="600" y="314" font-family="Arial" font-size="14" fill="#111827">2</text>
<text x="32" y="356" font-family="Arial" font-size="14" fill="#374151">2026-06-22</text>
<rect x="190" y="334" width="600" height="24" rx="4" fill="#2563eb"/>
<text x="800" y="352" font-family="Arial" font-size="14" fill="#111827">3</text>
<text x="32" y="394" font-family="Arial" font-size="14" fill="#374151">2026-06-29</text>
<rect x="190" y="372" width="600" height="24" rx="4" fill="#2563eb"/>
<text x="800" y="390" font-family="Arial" font-size="14" fill="#111827">3</text>
<text x="32" y="432" font-family="Arial" font-size="14" fill="#374151">2026-07-06</text>
<rect x="190" y="410" width="400" height="24" rx="4" fill="#2563eb"/>
<text x="600" y="428" font-family="Arial" font-size="14" fill="#111827">2</text>
</svg>
